<svg width="584" height="432" viewBox="0 0 584 432" fill="none" xmlns="http://www.w3.org/2000/svg">
<path d="M188.5 349.5L224.5 318.883L242 304L281.5 274.455L303.5 258L316 248.5L326 238.13L329.5 234.5L352 207.5L359.5 196L369.5 166.962L363 162.333L355 165.5L341.5 196L336.5 201.75L331.5 207.5L326 221L311 237L300.5 250.5L281.5 261L274.75 264.5L268 268L257.75 275.25L247.5 282.5L224.5 298L208.5 310.5L203 325L193.5 338.5L188.5 349.5Z" fill="#A5A5A5"/>
<path d="M61 1.5L99 5.5L110.118 12.5L93.5 18L101.5 38.5L91.6622 51.5L87.5 57L65 62.1136L54.5 64.5L20 51.5L39 12.5L61 1.5Z" fill="#58845C"/>
<path d="M148.5 141L143 129.25L163.5 112.526L171.5 106L169.1 98.5L192 115.25L198.5 101.5H221.053L232 109.5L247 117L211 124.5L221.053 141L195.25 149.616L198.5 160.731L174.5 166.962L155.25 189.25L147 180L133.105 154.5L148.5 141Z" fill="#58845C"/>
<path d="M257.75 275.25L268 268L274.75 264.5L268 264.16L245 263L232.25 248.5L221.053 250.428L223.5 258L217.25 284.25L223.5 286L257.75 275.25Z" fill="#58845C"/>
<path d="M441.5 312L460 267.536L453.947 258L441.5 274.5L435.071 277.5L426.5 281.5L417.5 291L413 304.5V313L401.5 341.5L399 353.5V363.5L402.5 373.5L401.5 379L401 385L401.5 395.841L420 357L432.5 342.5L441.5 324V312Z" fill="#A5A5A5"/>
<path fill-rule="evenodd" clip-rule="evenodd" d="M20 151.919L22.5 160L51 209.5L61 213.654L83.5 223L93.5 252.5L112.5 277.5L122 290L148.5 301.594L162 307.5V349.5H188.5L223.5 383H265L274.625 386.5L300.5 395.909L358.5 417L393 397L401.5 395.841L415 394L418 417L476 423.07L547 430.5L573 408.833L583 400.5L568 383L552 377.022L522.5 366L502.823 335L460 267.536L441.5 312V324L432.5 342.5L420 357L401.5 395.841L401 385L401.5 379L402.5 373.5L399 363.5V353.5L401.5 341.5L413 313V304.5L417.5 291L426.5 281.5L435.071 277.5L441.5 274.5L453.947 258L433 225L423 219.286L408.5 211L385 178L369.5 166.962L359.5 196L352 207.5L329.5 234.5L326 238.13L316 248.5L303.5 258L281.5 274.455L242 304L224.5 318.883L188.5 349.5L193.5 338.5L203 325L208.5 310.5L224.5 298L247.5 282.5L257.75 275.25L268 268L274.75 264.5L281.5 261L300.5 250.5L311 237L326 221L331.5 207.5L336.5 201.75L341.5 196L355 165.5L363 162.333L360.75 160.731L352 154.5L294 135.167L262 124.5L247 117L232 109.5L221.053 101.5L206 90.5L215.5 76L188 60.5L171.5 48.8529L145.5 30.5L126 22.5L110.118 12.5L99 5.5L61 1.5L39 12.5L20 51.5L54.5 64.5L65 62.1136L43 93L58.5 106L63.25 115.25L68 124.5L61 141L54.5 144.989L39 154.5L20 151.919Z" fill="#58845C"/>
<path d="M15.6154 60.5L1 90.5L20 151.919L39 154.5L54.5 144.989L61 141L68 124.5L63.25 115.25L58.5 106L43 93L65 62.1136L54.5 64.5L20 51.5L15.6154 60.5Z" fill="#58845C"/>
<path d="M122 290L112.5 277.5M122 290L148.5 301.594M122 290C132.555 294.618 139.977 297.865 148.5 301.594M162 307.5V349.5H188.5M162 307.5L148.5 301.594M162 307.5C156.934 305.284 152.59 303.383 148.5 301.594M188.5 349.5L223.5 383H265L274.625 386.5M188.5 349.5L193.5 338.5L203 325L208.5 310.5L224.5 298L247.5 282.5L257.75 275.25M188.5 349.5L224.5 318.883M188.5 349.5C202.847 337.298 212.865 328.778 224.5 318.883M393 397L358.5 417L300.5 395.909M393 397L415 394M393 397L401.5 395.841M415 394L418 417L476 423.07M415 394L401.5 395.841M433 225L502.823 335M433 225L423 219.286M433 225L453.947 258M242 304L224.5 318.883M242 304C235.454 309.567 229.809 314.368 224.5 318.883M242 304L281.5 274.455M369.5 166.962L385 178L408.5 211L423 219.286M369.5 166.962L359.5 196L352 207.5L329.5 234.5L326 238.13M369.5 166.962L363 162.333M363 162.333L360.75 160.731L352 154.5L294 135.167M363 162.333L355 165.5L341.5 196L336.5 201.75M453.947 258L441.5 274.5L435.071 277.5M453.947 258L460 267.536M460 267.536L441.5 312V324L432.5 342.5L420 357L401.5 395.841M460 267.536L502.823 335M401.5 395.841L401 385M20 51.5L39 12.5L61 1.5L99 5.5L110.118 12.5M20 51.5L15.6154 60.5L1 90.5L20 151.919M20 51.5L54.5 64.5L65 62.1136M110.118 12.5L126 22.5L145.5 30.5L171.5 48.8529M110.118 12.5L93.5 18L101.5 38.5L91.6622 51.5M65 62.1136L87.5 57L91.6622 51.5M65 62.1136L43 93L58.5 106L63.25 115.25M20 151.919L22.5 160L51 209.5L61 213.654M20 151.919L39 154.5L54.5 144.989M63.25 115.25L68 124.5L61 141L54.5 144.989M63.25 115.25L83.5 120L99 110.766M91.6622 51.5L105.5 55L122 66.5097L124.941 79M171.5 48.8529L188 60.5L215.5 76L206 90.5L221.053 101.5M171.5 48.8529L145.5 51.5L139.5 70L129.794 76M124.941 79L126 83.5L99 93L107 106L99 110.766M124.941 79L129.794 76M61 213.654L83.5 223L93.5 252.5L112.5 277.5M61 213.654L76 191L101.5 172.5L92.5 166.616M54.5 144.989V157L83.5 160.731L92.5 166.616M92.5 166.616L126 160.731L133.105 154.5M99 110.766L115 124.5L137.5 117.5L143 129.25M143 129.25L148.5 141L133.105 154.5M143 129.25L163.5 112.526M129.794 76L163.5 81L169.1 98.5M169.1 98.5L171.5 106L163.5 112.526M169.1 98.5L192 115.25L198.5 101.5H221.053M221.053 101.5L232 109.5L247 117M133.105 154.5L147 180L155.25 189.25M112.5 277.5L124.941 245.5L141.47 233.25M141.47 233.25L158 221L160.75 209.75M141.47 233.25L166.5 245.5L183 262.5L188 286L184.25 292M148.5 301.594L180.5 298L184.25 292M184.25 292L211 282.5L217.25 284.25M257.75 275.25L268 268L274.75 264.5M257.75 275.25L223.5 286L217.25 284.25M155.25 189.25L163.5 198.5L160.75 209.75M155.25 189.25L174.5 166.962L198.5 160.731M198.5 160.731L195.25 149.616M198.5 160.731L227.5 165.5L232.25 175M163.5 112.526L169.1 132L192 138.5L195.25 149.616M195.25 149.616L221.053 141L211 124.5L247 117M247 117L262 124.5L294 135.167M160.75 209.75L195.25 213.654L205.375 223.452M217.25 284.25L223.5 258L221.053 250.428M205.375 223.452L215.5 233.25L221.053 250.428M205.375 223.452L214.438 209.726M232.25 175L237 184.5L223.5 196L214.438 209.726M232.25 175H247.5L257.75 169.073M294 135.167L281.5 141L268 151.919L262 166.616L257.75 169.073M274.75 264.5L281.5 261L300.5 250.5L311 237L326 221L331.5 207.5L336.5 201.75M274.75 264.5L268 264.16M221.053 250.428L232.25 248.5L245 263L268 264.16M214.438 209.726L247 213.654L271 207.5M271 207.5L262 233.25L274.75 245.5L268 264.16M271 207.5V193.75M257.75 169.073L271 180V193.75M271 193.75L294 180L316 184.5H331.5L336.5 201.75M502.823 335L522.5 366L552 377.022M502.823 335L489 344.5V357L491.5 373.5L480 386.5L470.5 391L460.5 400.5L463.5 417L476 423.07M476 423.07L547 430.5L573 408.833M552 377.022L568 383L583 400.5L573 408.833M552 377.022L559.5 394V403L573 408.833M224.5 318.883L245.5 347.5L258.25 350.5M274.625 386.5L277.5 376L271 353.5L258.25 350.5M274.625 386.5L300.5 395.909M258.25 350.5L277.5 338.5L279.5 328.692M303.5 301.594L281.5 318.883L279.5 328.692M303.5 301.594L281.5 274.455M303.5 301.594L333.5 295L342.75 289.625M281.5 274.455L303.5 258L316 248.5L326 238.13M279.5 328.692L316 335.5L329.5 359.5L326.75 372.25M300.5 395.909L324 385L326.75 372.25M326.75 372.25L352 367L359.383 372.25M401 385L401.5 379L402.5 373.5L399 363.5V353.5L401.5 341.5L413 313V304.5L417.5 291L426.5 281.5L435.071 277.5M401 385L374.5 383L359.383 372.25M326 238.13L333.5 245.5L331.5 264.16L343.25 267.33M342.75 289.625L352 284.25L355 270.5L343.25 267.33M342.75 289.625L339.5 314.5L355 328.692L363 342.5L359.383 372.25M343.25 267.33L369.5 258L374.5 237L386.75 230.226M423 219.286L399 223.452L386.75 230.226M386.75 230.226L390.5 258L413 270.5L435.071 277.5" stroke="white" stroke-width="2" stroke-linejoin="round"/>
</svg>
