<svg xmlns="http://www.w3.org/2000/svg" width="584" height="432" fill="none" viewBox="0 0 584 432">
  <path stroke="#fff" stroke-linejoin="round" stroke-width="2" d="m93.5 252.5-10-29.5-22.5-9.346-10-4.154L32.288 177M93.5 252.5l19 25L122 290m-28.5-37.5 52.5 14 28.5-22.8M122 290l26.5 11.594M122 290l26.5 11.594M162 307.5v42h26.5m-26.5-42-13.5-5.906M162 307.5l-13.5-5.906m40 47.906 35 33.5H265l9.625 3.5 16.875 6.136m-103-43.136 5-11L203 325l5.5-14.5 16-12.5 16-10.783m-52 62.283 36-30.617m-36 30.617 36-30.617M393 397l-34.5 20-58-21.091-9-3.273M393 397l22-3m-22 3 8.5-1.159M415 394l3 23 58 6.07 71 7.43 26-21.667 10-8.333-15-17.5-16-5.978L522.5 366l-1-1.575M415 394l-13.5 1.841M433 225l69.823 110M433 225l-10-5.714L408.5 211 385 178l-15.5-11.038M433 225l20.947 33M242 304l-17.5 14.883M242 304l-17.5 14.883M242 304l39.5-29.545 1.5-1.122m86.5-106.371L359.5 196l-7.5 11.5-9.5 11.4m27-51.938-6.5-4.629m0 0-2.25-1.602L352 154.5l-58-19.333-29-9.667m98 36.833-8 3.167-13.5 30.5-5 5.75-5 5.75L326 221l-15 16-3.889 5m146.836 16L441.5 274.5l-6.429 3-8.571 4-9 9.5-1.333 4m37.78-37 6.053 9.536m0 0L441.5 312v12l-9 18.5L420 357l-5.477 11.5M460 267.536 502.823 335M401.5 395.841 401 385l.5-6 1-5.5-3.5-10v-10l2.5-12L413 313v-8.5l3.167-9.5M401.5 395.841l13.023-27.341m88.3-33.5 18.677 29.425M11.718 68.5l3.897-8 4.385-9L29.5 32 39 12.5l22-11 38 4 11.118 7L126 22.5l19.5 8 26 18.353L188 60.5l8.5 4.79M11.718 68.5 1 90.5l3.403 11L20 151.919 22.5 160l9.788 17M11.718 68.5 82.5 83l51-7.922m63-9.787L215.5 76 206 90.5l15.053 11 10.947 8 15 7.5 15 7.5 3 1m-68.5-60.21-63 9.787M32.288 177 139 171.5m0 0L121 141l12.5-65.922M139 171.5h35m91-46-32.5 34.018M174 171.5h47.053l11.447-11.982M174 171.5l19.5 57-19 15.2m0 0 66 43.517m0 0 7-4.717 10.25-7.25L268 268l6.75-3.5 6.75-3.5 19-10.5 6.611-8.5M232.5 159.518 276 189l31.111 53M291.5 392.636 317 350.5m0 0-34-77.167m34 77.167 42.5 4 36-34M283 273.333 303.5 258l12.5-9.5 10-10.37 3.5-3.63 13-15.6m53 101.6-36-48-17-53.6m53 101.6 20.667-25.5m-1.644 73.5 23.477 14 25.5-13 58-5.075"/>
</svg>
